<svg width="500" height="500" viewBox="0 0 500 500" fill="none" xmlns="http://www.w3.org/2000/svg">
<g clip-path="url(#clip0_4103_7)">
<path d="M227.119 388.96C213.421 387.161 200.44 384.431 188.303 378.557C160.548 365.124 146.454 342.14 142.021 312.399C141.678 310.099 141.429 307.784 141.901 305.035C144.484 309.419 147.007 313.84 149.667 318.177C152.42 322.664 155.306 327.069 158.133 331.51C158.555 331.376 158.976 331.241 159.398 331.107C158.496 324.513 157.582 317.92 156.695 311.323C152.8 282.332 162.588 259.376 186.888 242.793C200.507 233.497 212.678 222.773 220.575 207.946C225.359 198.963 228.017 189.49 227.247 179.179C226.593 170.432 224.211 162.532 216.38 156.268C229.739 157.033 240.18 162.379 245.597 173.334C250.564 183.377 252.829 194.757 256.517 206.275C257.687 203.85 259.159 201.421 260.077 198.797C266.015 181.819 268.597 164.172 268.776 146.319C268.897 134.326 267.301 122.316 266.448 109.957C286.081 122.207 301.185 139.279 311.586 160.563C322.068 182.012 325.046 204.924 323.711 229.703C331.501 220.905 339.421 215.344 350.622 222.132C344.32 227.649 342.795 234.849 343.173 242.226C343.906 256.515 345.584 270.754 346.415 285.041C347.361 301.29 345.684 317.341 340.603 332.867C330.652 363.279 309.074 380.414 278.301 386.924C261.5 390.478 244.566 390.373 227.119 388.96ZM275.921 247.392C269.029 254.783 261.673 261.601 252.718 266.883C249.213 250.625 241.279 240.717 232.588 240.522C230.557 247.478 229.863 255.042 226.312 260.866C220.217 270.864 212.989 280.371 205.065 289.009C191.349 303.962 183.518 320.405 184.812 341.3C186.124 362.492 198.192 378.992 218.864 384.121C237.945 388.855 257.251 388.471 276.156 383.548C299.645 377.43 314.322 362.145 319.651 338.236C322.892 323.694 321.697 309.118 319.582 294.626C315.878 269.253 307.62 245.194 297.642 221.682C296.213 218.315 294.565 215.04 293.019 211.723C292.577 211.748 292.136 211.772 291.694 211.797C291.451 225.711 284.916 236.737 275.921 247.392Z" fill="#03E0FD"/>
<path d="M276.142 247.115C284.915 236.737 291.451 225.711 291.694 211.797C292.136 211.772 292.577 211.748 293.019 211.723C294.565 215.04 296.213 218.315 297.642 221.682C307.62 245.194 315.878 269.253 319.581 294.626C321.697 309.118 322.892 323.694 319.651 338.236C314.322 362.145 299.645 377.43 276.156 383.548C257.251 388.471 237.944 388.855 218.864 384.121C198.191 378.992 186.124 362.492 184.812 341.3C183.518 320.405 191.349 303.962 205.065 289.009C212.989 280.371 220.217 270.864 226.312 260.866C229.863 255.042 230.557 247.478 232.588 240.522C241.279 240.717 249.213 250.625 252.718 266.883C261.673 261.601 269.029 254.783 276.142 247.115ZM251.813 327.976C251.588 329.117 251.421 330.274 251.128 331.397C249.635 337.121 246.208 339.788 240.367 339.817C235.514 339.842 231.408 336.379 230.178 331.148C229.904 329.981 229.842 328.765 229.511 326.299C222.914 338.609 217.631 349.986 218.148 363.083C218.514 372.333 223.774 379.131 232.662 381.949C241.737 384.826 251.068 384.97 260.256 382.702C267.392 380.941 273.197 376.6 275.616 369.588C281.808 351.637 279.98 334.449 268.409 319.021C263.699 312.739 257.158 308.69 249.518 307.005C250.335 314.002 251.102 320.561 251.813 327.976Z" fill="#00FEA4"/>
<path d="M251.841 327.549C251.102 320.562 250.335 314.004 249.518 307.006C257.158 308.691 263.699 312.741 268.409 319.022C279.98 334.451 281.808 351.638 275.616 369.589C273.197 376.601 267.392 380.942 260.257 382.703C251.068 384.971 241.738 384.827 232.662 381.95C223.774 379.132 218.514 372.334 218.148 363.085C217.631 349.987 222.914 338.61 229.511 326.3C229.842 328.766 229.904 329.982 230.179 331.149C231.408 336.38 235.514 339.843 240.368 339.818C246.208 339.789 249.636 337.122 251.128 331.399C251.421 330.275 251.588 329.118 251.841 327.549Z" fill="#DA21FE"/>
</g>
<defs>
<clipPath id="clip0_4103_7">
<rect width="500" height="500" fill="white"/>
</clipPath>
</defs>
</svg>
